<svg id="图层_1" data-name="图层 1" xmlns="http://www.w3.org/2000/svg" viewBox="0 0 20.86 33.28"><defs><style>.cls-1{fill:#fff;}.cls-1,.cls-2,.cls-3{stroke:#231815;stroke-miterlimit:10;}.cls-2{fill:#040000;}.cls-3{fill:none;stroke-width:0.5px;}</style></defs><title>ball0</title><path class="cls-1" d="M5.58-7.75" transform="translate(-7.75 -2.42)"/><rect class="cls-2" x="4.5" y="0.5" width="1.83" height="3.08"/><polyline class="cls-1" points="5.42 11.96 10.33 9.79 10.33 4.88 5.42 2.04"/><polyline class="cls-1" points="5.42 11.96 0.5 9.79 0.5 4.88 5.42 2.04"/><circle class="cls-2" cx="5.42" cy="8.49" r="2.46"/><polyline class="cls-3" points="16.61 33.21 17.11 31.5 17.71 32.75 18.44 31.5 19.02 32.36 20.69 30.75"/><polyline class="cls-3" points="16.61 33.21 17.11 31.5 17.71 32.75 18.44 31.5 19.02 32.36 20.69 30.75"/><polyline class="cls-3" points="16.61 33.21 17.11 31.5 17.71 32.75 18.44 31.5 19.02 32.36 20.69 30.75"/><polyline class="cls-3" points="16.61 33.21 17.11 31.5 17.71 32.75 18.44 31.5 19.02 32.36 20.69 30.75"/></svg>